{
  "accessors": [
    {
      "bufferView": 1,
      "componentType": 5126,
      "count": 544,
      "max": [
        -6.75555419921875,
        21.375890731811523,
        22.28619384765625
      ],
      "min": [
        -17.95867919921875,
        0.0,
        9.36114501953125
      ],
      "type": "VEC3"
    },
    {
      "bufferView": 1,
      "byteOffset": 6528,
      "componentType": 5126,
      "count": 544,
      "max": [
        0.9948018789291382,
        0.9908043742179871,
        0.9901790022850037
      ],
      "min": [
        -0.9965100288391113,
        -1.0,
        -0.9990209937095642
      ],
      "type": "VEC3"
    },
    {
      "bufferView": 0,
      "componentType": 5125,
      "count": 546,
      "type": "SCALAR"
    },
    {
      "bufferView": 1,
      "byteOffset": 13056,
      "componentType": 5126,
      "count": 618,
      "max": [
        -28.29278564453125,
        28.83272933959961,
        4.3612060546875
      ],
      "min": [
        -38.850830078125,
        0.0,
        -6.757568359375
      ],
      "type": "VEC3"
    },
    {
      "bufferView": 1,
      "byteOffset": 20472,
      "componentType": 5126,
      "count": 618,
      "max": [
        0.9964379072189331,
        0.9380691051483154,
        0.9952628016471863
      ],
      "min": [
        -0.9969680309295654,
        -0.9909858107566833,
        -0.9992626309394836
      ],
      "type": "VEC3"
    },
    {
      "bufferView": 0,
      "byteOffset": 2184,
      "componentType": 5125,
      "count": 618,
      "type": "SCALAR"
    },
    {
      "bufferView": 1,
      "byteOffset": 27888,
      "componentType": 5126,
      "count": 642,
      "max": [
        -2.6951904296875,
        29.642763137817383,
        3.2120361328125
      ],
      "min": [
        -12.291839599609375,
        0.0,
        -2.7452392578125
      ],
      "type": "VEC3"
    },
    {
      "bufferView": 1,
      "byteOffset": 35592,
      "componentType": 5126,
      "count": 642,
      "max": [
        0.9966015219688416,
        0.9890643954277039,
        0.9987253546714783
      ],
      "min": [
        -0.9987361431121826,
        -0.995573103427887,
        -0.9986206293106079
      ],
      "type": "VEC3"
    },
    {
      "bufferView": 0,
      "byteOffset": 4656,
      "componentType": 5125,
      "count": 642,
      "type": "SCALAR"
    },
    {
      "bufferView": 1,
      "byteOffset": 43296,
      "componentType": 5126,
      "count": 1014,
      "max": [
        -14.580764770507813,
        30.69540786743164,
        3.04730224609375
      ],
      "min": [
        -26.70843505859375,
        0.0,
        -2.47027587890625
      ],
      "type": "VEC3"
    },
    {
      "bufferView": 1,
      "byteOffset": 55464,
      "componentType": 5126,
      "count": 1014,
      "max": [
        0.9942783117294312,
        0.9534729719161987,
        0.9978141188621521
      ],
      "min": [
        -0.9991623759269714,
        -0.9909293055534363,
        -0.9969722628593445
      ],
      "type": "VEC3"
    },
    {
      "bufferView": 0,
      "byteOffset": 7224,
      "componentType": 5125,
      "count": 1014,
      "type": "SCALAR"
    },
    {
      "bufferView": 1,
      "byteOffset": 67632,
      "componentType": 5126,
      "count": 2664,
      "max": [
        11.312652587890625,
        21.668506622314453,
        21.583251953125
      ],
      "min": [
        1.07659912109375,
        0.0,
        10.64019775390625
      ],
      "type": "VEC3"
    },
    {
      "bufferView": 1,
      "byteOffset": 99600,
      "componentType": 5126,
      "count": 2664,
      "max": [
        0.998082160949707,
        0.9994180798530579,
        0.9999494552612305
      ],
      "min": [
        -0.9984402656555176,
        -0.9994115829467773,
        -0.9987347722053528
      ],
      "type": "VEC3"
    },
    {
      "bufferView": 0,
      "byteOffset": 11280,
      "componentType": 5125,
      "count": 2664,
      "type": "SCALAR"
    },
    {
      "bufferView": 1,
      "byteOffset": 131568,
      "componentType": 5126,
      "count": 672,
      "max": [
        12.169387817382813,
        29.33424949645996,
        3.34478759765625
      ],
      "min": [
        0.4053497314453125,
        0.0,
        -3.03277587890625
      ],
      "type": "VEC3"
    },
    {
      "bufferView": 1,
      "byteOffset": 139632,
      "componentType": 5126,
      "count": 672,
      "max": [
        0.9985399842262268,
        0.9726893305778503,
        0.9976223707199097
      ],
      "min": [
        -0.9963316321372986,
        -0.9966565370559692,
        -0.9993961453437805
      ],
      "type": "VEC3"
    },
    {
      "bufferView": 0,
      "byteOffset": 21936,
      "componentType": 5125,
      "count": 672,
      "type": "SCALAR"
    },
    {
      "bufferView": 1,
      "byteOffset": 147696,
      "componentType": 5126,
      "count": 1116,
      "max": [
        35.03230285644531,
        28.88316535949707,
        4.2447509765625
      ],
      "min": [
        26.0938720703125,
        0.0,
        -8.3740234375
      ],
      "type": "VEC3"
    },
    {
      "bufferView": 1,
      "byteOffset": 161088,
      "componentType": 5126,
      "count": 1116,
      "max": [
        0.9993050694465637,
        0.9884248375892639,
        0.9992743730545044
      ],
      "min": [
        -0.9975968599319458,
        -0.9978476166725159,
        -0.9983566403388977
      ],
      "type": "VEC3"
    },
    {
      "bufferView": 0,
      "byteOffset": 24624,
      "componentType": 5125,
      "count": 1116,
      "type": "SCALAR"
    },
    {
      "bufferView": 1,
      "byteOffset": 174480,
      "componentType": 5126,
      "count": 516,
      "max": [
        22.990875244140625,
        29.55059814453125,
        2.8101806640625
      ],
      "min": [
        13.090850830078125,
        0.0,
        -3.30859375
      ],
      "type": "VEC3"
    },
    {
      "bufferView": 1,
      "byteOffset": 180672,
      "componentType": 5126,
      "count": 516,
      "max": [
        0.973413348197937,
        0.9641777873039246,
        0.9988407492637634
      ],
      "min": [
        -0.9949365854263306,
        -0.9980921149253845,
        -0.9999823570251465
      ],
      "type": "VEC3"
    },
    {
      "bufferView": 0,
      "byteOffset": 29088,
      "componentType": 5125,
      "count": 516,
      "type": "SCALAR"
    }
  ],
  "asset": {
    "extras": {
      "author": "PolyOne Studio (https://sketchfab.com/polyone)",
      "license": "CC-BY-4.0 (http://creativecommons.org/licenses/by/4.0/)",
      "source": "https://sketchfab.com/3d-models/free-pack-lowpoly-people-6c13a4d1d04943e487313f377b4f3548",
      "title": "Free Pack - Lowpoly People"
    },
    "generator": "Sketchfab-16.72.0",
    "version": "2.0"
  },
  "bufferViews": [
    {
      "buffer": 0,
      "byteLength": 31152,
      "name": "floatBufferViews",
      "target": 34963
    },
    {
      "buffer": 0,
      "byteLength": 186864,
      "byteOffset": 31152,
      "byteStride": 12,
      "name": "floatBufferViews",
      "target": 34962
    }
  ],
  "buffers": [
    {
      "byteLength": 218016,
      "uri": "scene.bin"
    }
  ],
  "materials": [
    {
      "doubleSided": true,
      "name": "People_Lowpoly_M",
      "pbrMetallicRoughness": {
        "baseColorFactor": [
          0.5,
          0.5,
          0.5,
          1.0
        ],
        "metallicFactor": 0.0
      }
    }
  ],
  "meshes": [
    {
      "name": "SM_People_Lowpoly_01_People_Lowpoly_M_0",
      "primitives": [
        {
          "attributes": {
            "NORMAL": 1,
            "POSITION": 0
          },
          "indices": 2,
          "material": 0,
          "mode": 4
        }
      ]
    },
    {
      "name": "SM_People_Lowpoly_03_People_Lowpoly_M_0",
      "primitives": [
        {
          "attributes": {
            "NORMAL": 4,
            "POSITION": 3
          },
          "indices": 5,
          "material": 0,
          "mode": 4
        }
      ]
    },
    {
      "name": "SM_People_Lowpoly_05_People_Lowpoly_M_0",
      "primitives": [
        {
          "attributes": {
            "NORMAL": 7,
            "POSITION": 6
          },
          "indices": 8,
          "material": 0,
          "mode": 4
        }
      ]
    },
    {
      "name": "SM_People_Lowpoly_04_People_Lowpoly_M_0",
      "primitives": [
        {
          "attributes": {
            "NORMAL": 10,
            "POSITION": 9
          },
          "indices": 11,
          "material": 0,
          "mode": 4
        }
      ]
    },
    {
      "name": "SM_People_Lowpoly_02_People_Lowpoly_M_0",
      "primitives": [
        {
          "attributes": {
            "NORMAL": 13,
            "POSITION": 12
          },
          "indices": 14,
          "material": 0,
          "mode": 4
        }
      ]
    },
    {
      "name": "SM_People_Lowpoly_06_People_Lowpoly_M_0",
      "primitives": [
        {
          "attributes": {
            "NORMAL": 16,
            "POSITION": 15
          },
          "indices": 17,
          "material": 0,
          "mode": 4
        }
      ]
    },
    {
      "name": "SM_People_Lowpoly_08_People_Lowpoly_M_0",
      "primitives": [
        {
          "attributes": {
            "NORMAL": 19,
            "POSITION": 18
          },
          "indices": 20,
          "material": 0,
          "mode": 4
        }
      ]
    },
    {
      "name": "SM_People_Lowpoly_07_People_Lowpoly_M_0",
      "primitives": [
        {
          "attributes": {
            "NORMAL": 22,
            "POSITION": 21
          },
          "indices": 23,
          "material": 0,
          "mode": 4
        }
      ]
    }
  ],
  "nodes": [
    {
      "children": [
        1
      ],
      "matrix": [
        1.0,
        0.0,
        0.0,
        0.0,
        0.0,
        2.220446049250313e-16,
        -1.0,
        0.0,
        0.0,
        1.0,
        2.220446049250313e-16,
        0.0,
        0.0,
        0.0,
        0.0,
        1.0
      ],
      "name": "Sketchfab_model"
    },
    {
      "children": [
        2
      ],
      "matrix": [
        0.009999999776482582,
        0.0,
        0.0,
        0.0,
        0.0,
        0.0,
        0.009999999776482582,
        0.0,
        0.0,
        -0.009999999776482582,
        0.0,
        0.0,
        0.0,
        0.0,
        0.0,
        1.0
      ],
      "name": "8b4c69d14ada41a2b96b6ef52410f51c.fbx"
    },
    {
      "children": [
        3
      ],
      "name": "RootNode"
    },
    {
      "children": [
        4,
        6,
        8,
        10,
        12,
        14,
        16,
        18
      ],
      "name": "SM_People_Lowpoly"
    },
    {
      "children": [
        5
      ],
      "name": "SM_People_Lowpoly_01"
    },
    {
      "mesh": 0,
      "name": "SM_People_Lowpoly_01_People_Lowpoly_M_0"
    },
    {
      "children": [
        7
      ],
      "name": "SM_People_Lowpoly_03"
    },
    {
      "mesh": 1,
      "name": "SM_People_Lowpoly_03_People_Lowpoly_M_0"
    },
    {
      "children": [
        9
      ],
      "name": "SM_People_Lowpoly_05"
    },
    {
      "mesh": 2,
      "name": "SM_People_Lowpoly_05_People_Lowpoly_M_0"
    },
    {
      "children": [
        11
      ],
      "name": "SM_People_Lowpoly_04"
    },
    {
      "mesh": 3,
      "name": "SM_People_Lowpoly_04_People_Lowpoly_M_0"
    },
    {
      "children": [
        13
      ],
      "name": "SM_People_Lowpoly_02"
    },
    {
      "mesh": 4,
      "name": "SM_People_Lowpoly_02_People_Lowpoly_M_0"
    },
    {
      "children": [
        15
      ],
      "name": "SM_People_Lowpoly_06"
    },
    {
      "mesh": 5,
      "name": "SM_People_Lowpoly_06_People_Lowpoly_M_0"
    },
    {
      "children": [
        17
      ],
      "name": "SM_People_Lowpoly_08"
    },
    {
      "mesh": 6,
      "name": "SM_People_Lowpoly_08_People_Lowpoly_M_0"
    },
    {
      "children": [
        19
      ],
      "name": "SM_People_Lowpoly_07"
    },
    {
      "mesh": 7,
      "name": "SM_People_Lowpoly_07_People_Lowpoly_M_0"
    }
  ],
  "scene": 0,
  "scenes": [
    {
      "name": "Sketchfab_Scene",
      "nodes": [
        0
      ]
    }
  ]
}
